<svg width="141" height="134" viewBox="0 0 141 134" fill="none" xmlns="http://www.w3.org/2000/svg">
<path d="M27.5029 112.187C38.6777 121.907 53.5111 127.872 69.8057 127.992V133.992C53.2173 133.883 37.9905 128.33 26.0049 119.118L27.5029 112.187ZM116.613 117.515C104.343 127.682 88.3349 133.876 70.8057 133.992V127.992C88.076 127.865 103.704 121.171 115.075 110.399L116.613 117.515ZM77.3955 15.4717C87.9238 16.893 97.4617 21.4346 105.048 28.1357C103.792 27.9805 102.448 27.8266 101.146 27.71C99.0513 27.5224 97.0239 27.4241 95.6348 27.5703C94.9642 27.6409 94.3338 27.7769 93.9385 28.0703C93.7213 28.2314 93.5384 28.4685 93.5049 28.7871C93.4732 29.0897 93.5874 29.3707 93.7471 29.6104L93.8604 29.7705C94.4547 30.562 95.4835 31.276 96.5771 31.9072C97.7608 32.5903 99.1104 33.2255 100.257 33.7832C100.835 34.0643 101.36 34.3251 101.798 34.5664C102.242 34.8114 102.567 35.0192 102.762 35.1914C102.783 35.2102 102.8 35.2294 102.815 35.2451C102.799 35.2526 102.783 35.2636 102.764 35.2715L102.526 35.3525C102.336 35.4069 102.129 35.4847 101.977 35.6162C101.894 35.6873 101.8 35.7969 101.758 35.9521C101.713 36.117 101.742 36.2726 101.801 36.3955C101.901 36.6032 102.093 36.7346 102.226 36.8125C102.38 36.9032 102.571 36.9876 102.781 37.0674C103.617 37.3842 105.04 37.7255 106.702 38.0605C109.09 38.5418 112.048 39.0236 114.669 39.4121C118.506 45.4611 121.141 52.348 122.235 59.7373C120.117 59.8043 118.001 59.6322 116.145 59.0625L115.632 58.8926C112.078 57.6235 108.359 57.2247 105.993 57.6846C105.397 57.8004 104.863 57.9749 104.434 58.2207C104.004 58.4665 103.649 58.8012 103.469 59.2451C103.096 60.1653 103.586 61.193 104.609 62.2168L104.954 62.5684C105.274 62.903 105.522 63.1868 105.707 63.4287C105.958 63.757 106.068 63.9767 106.105 64.1172C106.136 64.2309 106.114 64.2646 106.098 64.2881C106.061 64.3418 105.966 64.4281 105.74 64.541C105.521 64.6508 105.235 64.7589 104.873 64.8887C104.52 65.0153 104.102 65.1595 103.655 65.335C102.869 65.6439 101.971 66.0567 101.057 66.6816L100.663 66.9629C100.238 67.2815 99.9191 67.5987 99.7236 67.9219C99.5219 68.2556 99.4391 68.6228 99.5488 68.9883C99.6535 69.3366 99.9063 69.5933 100.181 69.7803C100.458 69.9692 100.802 70.118 101.171 70.2383C102.612 70.7085 104.818 70.8588 106.406 70.8623C108.732 71.368 114.487 73.1465 119.187 76.2793L119.73 76.6348C120.25 76.9666 120.7 77.2281 121.083 77.4229C121.341 77.5537 121.583 77.6601 121.806 77.7373C119.967 87.0346 115.674 95.4485 109.63 102.277C109.402 101.662 109.124 100.871 108.64 100.237C108.08 99.505 107.248 98.9775 105.963 98.9775C104.846 98.9775 104.265 98.8729 103.947 98.7129C103.804 98.641 103.72 98.5606 103.66 98.4688C103.595 98.3695 103.542 98.2323 103.498 98.0273C103.336 97.2727 103.383 95.7504 102.526 93.708L102.343 93.293C101.905 92.3524 101.358 91.7244 100.72 91.3799C100.075 91.032 99.3975 91.005 98.7686 91.1553C97.6888 91.4133 96.7005 92.2013 96.0439 92.9082C94.6483 92.3496 91.9827 91.2147 89.9365 90.1182L89.5039 89.8809C89.1988 89.7104 88.9215 89.5906 88.6748 89.5352C88.4346 89.4813 88.1471 89.4726 87.8965 89.6309C87.6335 89.797 87.538 90.0653 87.5107 90.2832C87.4839 90.4978 87.5125 90.7283 87.5596 90.9424C87.7448 91.785 88.3533 92.9608 88.8301 93.7598L88.8721 93.8291L88.9336 93.8818L95.7598 99.7695L97.7529 105.225L97.792 105.331L97.873 105.41C98.6037 106.124 99.5866 107.243 100.183 108.279C100.484 108.803 100.657 109.256 100.685 109.599C100.698 109.763 100.675 109.882 100.636 109.967C100.608 110.026 100.566 110.086 100.495 110.142L100.414 110.197C99.9244 110.484 99.5672 110.799 99.3887 111.21C92.8536 115.566 85.2866 118.496 77.1318 119.555C77.1759 118.491 77.2725 117.296 77.4482 115.987L77.4756 115.747C77.5868 114.555 77.3106 113.549 76.7627 112.722C76.185 111.849 75.3271 111.206 74.3838 110.736C72.5058 109.802 70.1764 109.5 68.6084 109.5H68.5469L68.4883 109.515C67.3167 109.806 64.9255 111.157 63.8584 114.284L63.7588 114.593C63.6365 114.998 63.5579 115.326 63.5225 115.583C63.5048 115.711 63.4953 115.835 63.502 115.95C63.5082 116.058 63.5304 116.202 63.6104 116.337C63.7049 116.496 63.8662 116.614 64.0693 116.638C64.2398 116.658 64.3844 116.604 64.4736 116.562C64.6531 116.476 64.8277 116.325 64.9766 116.178C65.518 115.643 66.2535 114.613 66.8281 113.747C67.3822 113.981 67.8643 114.496 68.2852 115.264C68.78 116.166 69.1433 117.332 69.4229 118.54C69.5357 119.028 69.6313 119.517 69.7188 119.992C59.7286 119.883 50.4083 116.984 42.5 112.036V104.106L44.457 99.7031L45.0762 98.3096L43.752 99.0664C42.7059 99.6641 40.0128 100.492 37.4912 99.1982L37.248 99.0664C36.7955 98.8078 36.308 98.7397 35.8623 98.9863C35.4605 99.2088 35.202 99.6316 35.0254 100.079C34.6676 100.986 34.5045 102.361 34.4502 103.883C34.4281 104.502 34.4236 105.157 34.4336 105.829C24.3559 96.3945 18.0001 83.0323 17.8096 68.1836C18.1364 68.6076 18.3079 68.9839 18.4902 69.3486C18.7199 69.8079 18.9864 70.2821 19.6367 70.5918C20.2374 70.8778 21.1167 71 22.5 71C24.5556 71 25.5834 71.7661 26.0947 72.6299C26.63 73.5341 26.6604 74.649 26.5098 75.4023L26.4121 75.8926L26.9023 75.9902L31.9023 76.9902L32.5 77.1104V69.2803L32.3379 69.1318L26.5566 63.833L27.4854 60.1211L27.5605 59.8184L27.3223 59.6172L19.7617 53.25C21.4528 47.2382 24.1873 41.6632 27.7578 36.7334C28.0592 36.8091 28.3247 36.9019 28.5615 37.0059C29.2009 37.2864 29.661 37.6604 30.0742 38.0566C30.866 38.8158 31.6194 39.8662 33.2266 39.8662C33.8129 39.8662 34.2075 40.0087 34.5107 40.1914C34.8334 40.3859 35.0615 40.6264 35.3516 40.8994C35.6193 41.1515 35.9665 41.4568 36.4551 41.5488C36.9543 41.6427 37.4914 41.498 38.1211 41.1357L38.2412 41.0771C38.5369 40.9551 38.9347 40.9453 39.4463 41.0752C40.025 41.2221 40.6812 41.5316 41.3584 41.9404C42.7108 42.7571 44.0538 43.9148 44.874 44.7314L44.9014 44.7578L44.9326 44.7803C45.3638 45.0951 45.8841 45.4432 46.4053 45.7412C46.9191 46.035 47.4635 46.2979 47.9355 46.4219C48.1696 46.4833 48.4258 46.5217 48.668 46.4863C48.9262 46.4486 49.1929 46.3207 49.3564 46.043C49.5062 45.7886 49.5207 45.4883 49.4814 45.2031C49.4512 44.9841 49.3847 44.7379 49.2842 44.4648L49.1719 44.1826C47.9131 41.1955 46.2869 38.8598 45.6123 38.0449L44.7432 38.4883C44.7983 38.7023 44.7972 38.8616 44.7744 38.9385L44.7734 38.9395C44.7693 38.9399 44.7645 38.9411 44.7588 38.9414C44.6393 38.947 44.3515 38.8894 43.8154 38.5791C43.4256 38.3534 42.9361 38.0141 42.3291 37.5244L41.6826 36.9834C40.5409 35.9982 40.0228 35.3225 39.7949 34.833C39.583 34.3777 39.6073 34.0551 39.6709 33.6895C39.7352 33.3197 39.8772 32.7954 39.7178 32.166C39.5776 31.6131 39.2238 31.02 38.5342 30.3018L38.2178 29.9863C37.4693 29.2687 36.6669 28.5531 35.8672 27.8682C41.3903 23.0642 47.9278 19.3965 55.1152 17.2275C54.9739 17.7146 54.8376 18.2315 54.7295 18.75C54.5281 19.7158 54.4133 20.7411 54.5801 21.6172C54.7522 22.521 55.2392 23.3098 56.2422 23.6533L56.415 23.7227C57.2481 24.1061 57.6347 25.0619 57.6914 26.3672C57.7504 27.7284 57.4301 29.2533 57.1123 30.2402L57.0391 30.4678L57.1709 30.668L59.54 34.2744L60.5586 35.8252L60.457 33.9727C60.3929 32.8013 60.4731 31.1028 60.8975 29.79C61.1101 29.1322 61.3926 28.6231 61.7383 28.3135C62.0602 28.0253 62.4614 27.8852 63.0176 27.998L63.1699 28.0254C63.5243 28.0786 63.8595 28.0596 64.1514 27.9287C64.5038 27.7706 64.7196 27.4822 64.8281 27.1523C64.9314 26.8383 64.9412 26.4817 64.9053 26.127C64.8688 25.7666 64.781 25.3732 64.6621 24.9688C64.243 23.5432 63.3822 21.8144 62.6367 20.5107L69.2637 17.3242C69.9654 18.3087 71.0471 19.4423 72.2793 19.9062C72.9949 20.1756 73.7848 20.2272 74.5625 19.8633C75.3281 19.505 76.0102 18.7778 76.5928 17.6377L76.793 17.2266C77.0906 16.5852 77.2866 16.001 77.3955 15.4717ZM6.97949 71.9961C7.99325 85.1322 13.4087 97.1025 21.8271 106.573L14.8281 108.344C6.43212 98.1835 1.06067 85.6595 0 71.9961H6.97949ZM140.611 71.9961C139.568 85.4396 134.35 97.7793 126.186 107.851L119.211 106.086C127.385 96.6932 132.635 84.9083 133.632 71.9961H140.611ZM71.8857 40.21C70.7136 39.3587 69.226 39.506 67.6309 39.957C66.7258 40.2128 64.1444 39.4336 63.6279 39.8926C63.4202 40.0822 65.3227 42.7287 65.624 42.8613C70.9329 45.1797 76.8476 44.4963 76.8828 44.4922C77.6722 44.5619 77.5046 44.5049 78.1709 44.4189C78.335 44.3978 78.4822 44.3515 78.4707 44.625C78.4581 44.9008 77.0298 48.7339 76.8828 49.0996C76.4925 50.0698 79.4391 51.8141 78.5762 53.0898C77.989 53.9565 73.7301 55.3315 72.8105 56.8438C72.1609 57.9125 71.1178 59.5306 70.4473 60.6182C69.7768 61.7058 69.4984 62.2538 69.2305 62.6689C68.422 63.922 66.966 71.6555 66.4453 72.3799C66.0695 72.8995 66.5857 66.6449 65.0801 68.5039C63.8912 69.9718 62.9116 71.4756 62.4951 72.1045C62.0569 72.7663 61.7031 73.48 61.3291 74.292C61.0267 74.9486 60.6669 75.4715 60.2373 76.6846C59.6377 78.3775 59.0916 79.2959 58.6064 80.0166C58.1735 80.6597 57.7231 81.5797 56.5625 81.6367C55.6233 81.6828 53.984 81.7095 53.3066 81.0615C52.9007 80.6729 52.4147 80.1769 52.3887 79.5576C52.3744 79.2165 52.4252 78.1608 52.999 76.959C53.6244 75.6494 54.4685 74.6575 54.9814 73.9746C55.4556 73.3434 55.6375 72.6075 56.2119 71.9609C57.2837 70.7549 58.4396 69.7708 58.7881 69.2578C58.8652 69.1443 58.9164 68.9807 58.7217 68.9248C58.1598 68.7644 56.9361 68.4852 56.0117 68.3281C54.8614 68.1328 52.9456 68.1595 51.4775 67.4102C50.7709 67.0493 47.7763 64.9367 46.5791 66.0537C46.1161 66.4856 45.3161 66.9568 44.8701 67.4551C44.3729 68.0129 44.9419 72.8397 44.5068 73.2783C43.8416 73.9447 41.9858 70.6537 40.3564 73.9336C39.9873 74.6767 39.4944 75.3845 39.0381 76.4121C38.6566 77.2713 37.9175 78.0346 37.5625 79.4385C37.0434 81.4914 36.7974 82.7073 36.876 83.6484C36.9573 84.6227 37.0535 86.1353 37.1934 87.0928C37.3003 87.8245 37.0098 89.5903 37.75 90.4951C38.3523 91.2309 40.9517 88.2333 41.8877 88.8184C42.4822 89.1901 41.5228 94.1564 44.2676 94.793C46.3054 95.2652 49.2685 95.9306 50.335 95.9922C51.0246 96.0319 51.9291 96.1156 53.8086 95.9951C56.3087 95.8348 57.5929 95.7919 58.4111 95.6279C59.1504 95.4782 58.2276 92.3427 58.8975 92.1846C59.551 92.0322 61.9336 95.023 62.4756 94.7217C63.119 94.3639 63.6073 93.7257 64.0254 93.3193C64.4918 92.866 65.4436 91.9311 66.0693 90.9785C66.3929 90.4857 65.8152 89.1895 66.3906 88.3418C67.133 87.2485 68.6156 87.4786 68.8574 86.9814C69.1359 86.4084 69.4798 85.8799 69.8535 85.082C70.4892 83.725 69.7626 82.3589 71.9648 80.0479C72.9549 79.0088 71.3032 77.1637 71.877 76.4531C72.5777 75.5872 75.3056 74.1138 75.7305 73.4609C76.4589 72.3385 77.1292 71.4753 77.7549 70.4844C78.2507 69.6986 75.2242 67.4967 75.7998 66.6738C76.2206 66.0732 80.3489 66.1548 80.7529 65.4453C81.2507 64.569 81.8489 63.4906 82.1641 62.8789C82.4168 62.3879 81.5223 59.2712 82.2568 57.7402C83.0924 55.9994 84.5908 57.383 84.9297 56.5312C85.3309 55.5229 85.4139 54.9837 85.8887 54.1289C86.3104 53.3697 88.3141 49.4638 89.001 47.3984C89.9813 44.4505 89.6605 44.8455 90.2578 44.7129C90.5224 44.6549 93.3736 44.8361 93.417 44.8389C94.0335 44.8131 96.3451 43.6316 96.9443 43.6826C97.8455 43.7607 100.959 45.0042 102.647 44.6895C104.07 44.4241 106.36 42.8804 106.447 42.584C106.532 42.2887 102.017 41.3132 101.279 41.1016C100.171 40.7844 93.3116 41.685 92.6816 41.8311C92.0289 41.9821 90.0821 40.6569 87.4199 40.9512C86.1213 41.0948 85.205 41.2435 84.4209 41.373C83.5212 41.5215 82.2802 40.7131 80.9736 40.6973C80.0763 40.6865 78.9438 41.138 77.8398 41.1523C76.6434 41.1677 76.3353 40.1779 75.0781 40.3604L75.04 40.3662C74.2903 40.4752 72.5901 40.7216 71.8857 40.21ZM119.878 67.1709C120.111 67.1001 120.49 67.0932 121.031 67.1855C121.536 67.2718 122.136 67.4372 122.804 67.666C122.797 69.7711 122.666 71.8469 122.419 73.8867C122.294 73.6168 122.162 73.3357 122.023 73.0459C121.562 72.0823 121.029 71.0059 120.476 69.8438L119.917 68.6533C119.629 68.0302 119.576 67.6519 119.608 67.4473C119.623 67.3576 119.652 67.3101 119.681 67.2793C119.712 67.2457 119.769 67.204 119.878 67.1709ZM26.1104 24.0537C15.4998 33.8542 8.46943 47.1522 7.06543 61.9961H0C1.19088 46.6553 7.81622 32.7509 18.0547 22.0156L26.1104 24.0537ZM122.624 22.0879C132.824 32.8133 139.423 46.6893 140.611 61.9961H133.546C132.145 47.1875 125.145 33.9178 114.576 24.124L122.624 22.0879ZM70.8057 0C86.0502 0.100631 100.145 4.79751 111.631 12.708L109.996 20.2695C99.2451 12.0571 85.6305 7.10795 70.8057 6.99902V0ZM69.8057 6.99902C55.1202 7.10693 41.6221 11.9638 30.9189 20.0381L29.2891 12.4971C40.7185 4.7142 54.6973 0.0997318 69.8057 0V6.99902Z" fill="#FB8D44"/>
</svg>
